[img]http://img706.imageshack.us/img706/5374/arthurf.jpg[/img]
[code]

Imdb: 
http://www.imdb.com/title/tt1430607/

Plot:
On Christmas night at the North Pole, Santa's youngest son looks to use his father's high-tech operation for an urgent mission.

Format                           : MPEG-4 Visual
Format profile                   : Advanced Simple@L5
Format settings, BVOP            : 2
Format settings, QPel            : No
Format settings, GMC             : No warppoints
Format settings, Matrix          : Default (H.263)
Muxing mode                      : Packed bitstream
Codec ID                         : XVID
Codec ID/Hint                    : XviD
Duration                         : 1h 31mn
Bit rate                         : 3 559 Kbps
Width                            : 1 280 pixels
Height                           : 544 pixels
Display aspect ratio             : 2.35:1
Frame rate                       : 24.000 fps
Color space                      : YUV
Chroma subsampling               : 4:2:0
Bit depth                        : 8 bits
Scan type                        : Progressive
Compression mode                 : Lossy
Bits/(Pixel*Frame)               : 0.213
Stream size                      : 2.27 GiB (90%)
Writing library                  : XviD 64

Audio
ID                               : 1
Format                           : AC-3
Format/Info                      : Audio Coding 3
Mode extension                   : CM (complete main)
Codec ID                         : 2000
Duration                         : 1h 31mn
Bit rate mode                    : Constant
Bit rate                         : 384 Kbps
Channel(s)                       : 6 channels
Channel positions                : Front: L C R, Side: L R, LFE
Sampling rate                    : 48.0 KHz
Bit depth                        : 16 bits
Compression mode                 : Lossy
Stream size                      : 251 MiB (10%)
Alignment                        : Aligned on interleaves
Interleave, duration             : 42 ms (1.00 video frame)

[/code]
Screens:
[img]http://img408.imageshack.us/img408/34/84627697.png[/img]
[img]http://img403.imageshack.us/img403/6241/75472344.png[/img]
[img]http://img861.imageshack.us/img861/6848/89182634.png[/img]
[img]http://img818.imageshack.us/img818/8982/92707938.png[/img]